<svg width="50" height="50" viewBox="0 0 50 50" fill="none" xmlns="http://www.w3.org/2000/svg">
<path d="M25 0C20.0555 0 15.222 1.46622 11.1108 4.21326C6.99953 6.96029 3.79521 10.8648 1.90302 15.4329C0.0108316 20.0011 -0.484251 25.0277 0.480379 29.8773C1.44501 34.7268 3.82603 39.1813 7.32234 42.6777C10.8187 46.174 15.2732 48.555 20.1227 49.5196C24.9723 50.4843 29.9989 49.9892 34.5671 48.097C39.1352 46.2048 43.0397 43.0005 45.7867 38.8892C48.5338 34.778 50 29.9445 50 25C49.9925 18.3719 47.3562 12.0174 42.6694 7.33057C37.9826 2.64378 31.6281 0.00746027 25 0ZM25 47.0588C20.6372 47.0588 16.3723 45.7651 12.7448 43.3412C9.11723 40.9174 6.28989 37.4723 4.62031 33.4415C2.95073 29.4108 2.5139 24.9755 3.36504 20.6965C4.21619 16.4175 6.31708 12.487 9.40207 9.40205C12.487 6.31707 16.4176 4.21617 20.6965 3.36503C24.9755 2.51389 29.4108 2.95072 33.4416 4.6203C37.4723 6.28988 40.9174 9.11722 43.3412 12.7448C45.7651 16.3723 47.0588 20.6372 47.0588 25C47.0522 30.8483 44.726 36.4552 40.5906 40.5906C36.4552 44.726 30.8483 47.0522 25 47.0588ZM31.0547 23.2887L22.0588 35.2926H30.8824C31.2724 35.2926 31.6464 35.4476 31.9222 35.7234C32.198 35.9992 32.3529 36.3732 32.3529 36.7632C32.3529 37.1533 32.198 37.5273 31.9222 37.8031C31.6464 38.0789 31.2724 38.2338 30.8824 38.2338H19.1843C19.1623 38.2348 19.14 38.2353 19.1174 38.2353C18.8415 38.2351 18.5712 38.1574 18.3373 38.0109C18.1035 37.8644 17.9156 37.6551 17.795 37.4069C17.6745 37.1587 17.6262 36.8816 17.6556 36.6072C17.6851 36.3329 17.7911 36.0724 17.9615 35.8554L28.6779 21.5556C29.0168 21.0438 29.2451 20.467 29.3484 19.8619C29.4516 19.2569 29.4275 18.6369 29.2776 18.0417C29.1277 17.4465 28.8552 16.8892 28.4777 16.4052C28.1001 15.9213 27.6257 15.5214 27.0849 15.2312C26.544 14.941 25.9485 14.7669 25.3366 14.7198C24.7246 14.6728 24.1095 14.754 23.5306 14.9582C22.9518 15.1624 22.4219 15.485 21.9749 15.9056C21.5278 16.3262 21.1734 16.8354 20.9343 17.4007C20.8591 17.5786 20.7496 17.7399 20.612 17.8755C20.4744 18.011 20.3115 18.1182 20.1326 18.1908C19.9536 18.2634 19.7621 18.3 19.569 18.2986C19.3758 18.2971 19.1849 18.2577 19.007 18.1825C18.8291 18.1073 18.6678 17.9977 18.5322 17.8602C18.3967 17.7226 18.2896 17.5597 18.217 17.3807C18.1444 17.2017 18.1077 17.0102 18.1092 16.8171C18.1106 16.624 18.15 16.433 18.2253 16.2551C18.6246 15.3106 19.2171 14.4599 19.9647 13.7579C20.7123 13.0559 21.5985 12.518 22.5663 12.1788C23.5341 11.8396 24.5622 11.7066 25.5844 11.7883C26.6067 11.8699 27.6006 12.1645 28.5023 12.6531C29.404 13.1417 30.1935 13.8135 30.8201 14.6253C31.4467 15.4371 31.8967 16.3711 32.1409 17.3671C32.3852 18.3631 32.4185 19.3992 32.2386 20.4088C32.0587 21.4185 31.6696 22.3793 31.0963 23.2297C31.0829 23.2496 31.069 23.2694 31.0547 23.2887Z" fill="#707070"/>
</svg>
