<svg width="50" height="50" viewBox="0 0 50 50" fill="none" xmlns="http://www.w3.org/2000/svg">
<path d="M25 0C20.0555 0 15.222 1.46622 11.1108 4.21326C6.99952 6.96029 3.79521 10.8648 1.90302 15.4329C0.0108317 20.0011 -0.484251 25.0277 0.480379 29.8773C1.44501 34.7268 3.82603 39.1813 7.32234 42.6777C10.8187 46.174 15.2732 48.555 20.1227 49.5196C24.9723 50.4842 29.9989 49.9892 34.5671 48.097C39.1352 46.2048 43.0397 43.0005 45.7867 38.8892C48.5338 34.778 50 29.9445 50 25C49.9925 18.3719 47.3562 12.0174 42.6694 7.33057C37.9826 2.64378 31.6281 0.00746027 25 0ZM25 47.0588C20.6372 47.0588 16.3723 45.7651 12.7448 43.3412C9.11723 40.9174 6.28989 37.4723 4.62031 33.4415C2.95073 29.4108 2.5139 24.9755 3.36504 20.6965C4.21619 16.4175 6.31708 12.487 9.40207 9.40205C12.487 6.31707 16.4176 4.21617 20.6965 3.36503C24.9755 2.51389 29.4108 2.95072 33.4416 4.6203C37.4723 6.28988 40.9174 9.11722 43.3412 12.7448C45.7651 16.3723 47.0588 20.6372 47.0588 25C47.0522 30.8483 44.726 36.4552 40.5906 40.5906C36.4552 44.726 30.8483 47.0522 25 47.0588ZM29.913 24.9899C30.694 25.7622 31.3146 26.6812 31.7391 27.6941C32.1637 28.707 32.3838 29.7939 32.3869 30.8921C32.39 31.9904 32.1759 33.0785 31.7571 34.0938C31.3382 35.1091 30.7227 36.0315 29.9461 36.8081C29.1695 37.5847 28.247 38.2001 27.2317 38.619C26.2165 39.0379 25.1284 39.2519 24.0301 39.2488C22.9318 39.2457 21.845 39.0255 20.8321 38.6009C19.8192 38.1763 18.9002 37.5557 18.1279 36.7747C17.8601 36.4974 17.7118 36.1259 17.7152 35.7403C17.7185 35.3547 17.8732 34.9859 18.1459 34.7132C18.4185 34.4406 18.7874 34.2859 19.1729 34.2826C19.5585 34.2792 19.93 34.4275 20.2074 34.6953C20.8344 35.3223 21.6064 35.785 22.4549 36.0424C23.3035 36.2997 24.2024 36.3439 25.0721 36.1709C25.9418 35.9979 26.7554 35.6131 27.4408 35.0505C28.1262 34.488 28.6624 33.7651 29.0017 32.9459C29.3411 32.1267 29.4731 31.2364 29.3862 30.3539C29.2993 29.4715 28.9962 28.6241 28.5035 27.8868C28.0109 27.1495 27.3441 26.545 26.5621 26.127C25.7801 25.709 24.9071 25.4902 24.0203 25.4902C23.7514 25.4902 23.4875 25.4164 23.2575 25.2769C23.0276 25.1374 22.8403 24.9374 22.716 24.6988C22.5918 24.4603 22.5353 24.1922 22.5529 23.9238C22.5704 23.6553 22.6612 23.3969 22.8154 23.1765L28.0578 15.6843H19.1169C18.7269 15.6843 18.3528 15.5294 18.0771 15.2536C17.8013 14.9778 17.6463 14.6037 17.6463 14.2137C17.6463 13.8237 17.8013 13.4496 18.0771 13.1739C18.3528 12.8981 18.7269 12.7431 19.1169 12.7431H30.8816C31.1506 12.7431 31.4145 12.8169 31.6444 12.9564C31.8744 13.096 32.0617 13.2959 32.186 13.5345C32.3102 13.7731 32.3666 14.0412 32.3491 14.3096C32.3316 14.578 32.2407 14.8365 32.0865 15.0569L26.5679 22.9436C27.8305 23.3485 28.9776 24.0502 29.913 24.9899Z" fill="#707070"/>
</svg>
