<svg width="50" height="50" viewBox="0 0 50 50" fill="none" xmlns="http://www.w3.org/2000/svg">
<path d="M25 0C20.0555 0 15.222 1.46622 11.1108 4.21326C6.99952 6.96029 3.79521 10.8648 1.90302 15.4329C0.0108317 20.0011 -0.484251 25.0277 0.480379 29.8773C1.44501 34.7268 3.82603 39.1813 7.32234 42.6777C10.8187 46.174 15.2732 48.555 20.1227 49.5196C24.9723 50.4842 29.9989 49.9892 34.5671 48.097C39.1352 46.2048 43.0397 43.0005 45.7867 38.8892C48.5338 34.778 50 29.9445 50 25C49.9925 18.3719 47.3562 12.0174 42.6694 7.33057C37.9826 2.64378 31.6281 0.00746027 25 0ZM25 47.0588C20.6372 47.0588 16.3723 45.7651 12.7448 43.3412C9.11723 40.9174 6.28989 37.4723 4.62031 33.4415C2.95073 29.4108 2.5139 24.9755 3.36504 20.6965C4.21619 16.4175 6.31708 12.487 9.40207 9.40205C12.487 6.31707 16.4176 4.21617 20.6965 3.36503C24.9755 2.51389 29.4108 2.95072 33.4416 4.6203C37.4723 6.28988 40.9174 9.11722 43.3412 12.7448C45.7651 16.3723 47.0588 20.6372 47.0588 25C47.0522 30.8483 44.726 36.4552 40.5906 40.5906C36.4552 44.726 30.8483 47.0522 25 47.0588ZM31.3726 21.0784V36.7647C31.3726 37.1547 31.2176 37.5288 30.9418 37.8046C30.666 38.0804 30.292 38.2353 29.902 38.2353C29.5119 38.2353 29.1379 38.0804 28.8621 37.8046C28.5863 37.5288 28.4314 37.1547 28.4314 36.7647V30.3921H18.1373C17.9021 30.3922 17.6703 30.3357 17.4614 30.2276C17.2525 30.1196 17.0726 29.9629 16.9367 29.7709C16.8009 29.5789 16.7131 29.3571 16.6807 29.1242C16.6483 28.8912 16.6722 28.6539 16.7505 28.4321L22.6324 11.7654C22.7622 11.3976 23.0328 11.0965 23.3846 10.9282C23.7365 10.7599 24.1408 10.7383 24.5086 10.8681C24.8764 10.9979 25.1775 11.2685 25.3458 11.6204C25.5141 11.9723 25.5357 12.3766 25.4059 12.7444L20.2157 27.451H28.4314V21.0784C28.4314 20.6884 28.5863 20.3144 28.8621 20.0386C29.1379 19.7628 29.5119 19.6078 29.902 19.6078C30.292 19.6078 30.666 19.7628 30.9418 20.0386C31.2176 20.3144 31.3726 20.6884 31.3726 21.0784Z" fill="#707070"/>
</svg>
