<svg width="50" height="50" viewBox="0 0 50 50" fill="none" xmlns="http://www.w3.org/2000/svg">
<path d="M25 0C20.0555 0 15.222 1.46622 11.1108 4.21326C6.99952 6.96029 3.79521 10.8648 1.90302 15.4329C0.0108317 20.0011 -0.484251 25.0277 0.480379 29.8773C1.44501 34.7268 3.82603 39.1813 7.32234 42.6777C10.8187 46.174 15.2732 48.555 20.1227 49.5196C24.9723 50.4842 29.9989 49.9892 34.5671 48.097C39.1352 46.2048 43.0397 43.0005 45.7867 38.8892C48.5338 34.778 50 29.9445 50 25C49.9925 18.3719 47.3562 12.0174 42.6694 7.33057C37.9826 2.64378 31.6281 0.00746027 25 0ZM25 47.0588C20.6372 47.0588 16.3723 45.7651 12.7448 43.3412C9.11723 40.9174 6.28989 37.4723 4.62031 33.4415C2.95073 29.4108 2.5139 24.9755 3.36504 20.6965C4.21619 16.4175 6.31708 12.487 9.40207 9.40205C12.487 6.31707 16.4176 4.21617 20.6965 3.36503C24.9755 2.51389 29.4108 2.95072 33.4416 4.6203C37.4723 6.28988 40.9174 9.11722 43.3412 12.7448C45.7651 16.3723 47.0588 20.6372 47.0588 25C47.0522 30.8483 44.726 36.4552 40.5906 40.5906C36.4552 44.726 30.8483 47.0522 25 47.0588ZM27.451 14.2157V36.7647C27.451 37.1547 27.296 37.5288 27.0203 37.8046C26.7445 38.0803 26.3704 38.2353 25.9804 38.2353C25.5904 38.2353 25.2163 38.0803 24.9405 37.8046C24.6647 37.5288 24.5098 37.1547 24.5098 36.7647V16.9627L20.9135 19.3593C20.5889 19.5731 20.1929 19.6497 19.812 19.5724C19.4311 19.4951 19.0963 19.2701 18.8808 18.9466C18.6653 18.6232 18.5865 18.2276 18.6618 17.8463C18.7371 17.465 18.9603 17.129 19.2826 16.9118L25.165 12.9919C25.3864 12.8443 25.6438 12.7596 25.9096 12.7468C26.1755 12.734 26.4398 12.7936 26.6745 12.9192C26.9091 13.0448 27.1052 13.2317 27.242 13.4601C27.3787 13.6884 27.451 13.9495 27.451 14.2157Z" fill="#5E5E5E"/>
</svg>
