<svg width="32" height="32" viewBox="0 0 32 32" fill="none" xmlns="http://www.w3.org/2000/svg">
<path d="M10 30C11.1046 30 12 29.1046 12 28C12 26.8954 11.1046 26 10 26C8.89543 26 8 26.8954 8 28C8 29.1046 8.89543 30 10 30Z" fill="black"/>
<path d="M24 30C25.1046 30 26 29.1046 26 28C26 26.8954 25.1046 26 24 26C22.8954 26 22 26.8954 22 28C22 29.1046 22.8954 30 24 30Z" fill="black"/>
<path d="M28 6.99996H5.82L5 2.79996C4.95325 2.57068 4.82758 2.36506 4.64486 2.21889C4.46214 2.07271 4.23395 1.99524 4 1.99996H0V3.99996H3.18L7 23.2C7.04675 23.4292 7.17242 23.6349 7.35514 23.781C7.53786 23.9272 7.76605 24.0047 8 24H26V22H8.82L8 18H26C26.2312 18.0056 26.4571 17.931 26.6395 17.7888C26.8218 17.6465 26.9492 17.4455 27 17.22L29 8.21996C29.0335 8.07159 29.0327 7.91752 28.9977 7.76949C28.9627 7.62146 28.8944 7.48337 28.798 7.36573C28.7015 7.24809 28.5795 7.15399 28.4413 7.09061C28.303 7.02723 28.1521 6.99622 28 6.99996ZM25.2 16H7.62L6.22 8.99996H26.75L25.2 16Z" fill="black"/>
</svg>
