<svg width="17" height="17" viewBox="0 0 17 17" fill="none" xmlns="http://www.w3.org/2000/svg">
<g clip-path="url(#clip0)">
<path d="M16.3703 14.2077L12.8449 10.6824C13.5285 9.60571 13.9237 8.32929 13.9237 6.96292C13.9237 3.12375 10.8007 0 6.9615 0C3.12233 0 0 3.12375 0 6.96292C0 10.8021 3.12233 13.9258 6.96221 13.9258C8.26129 13.9258 9.47821 13.5681 10.5195 12.9462L14.076 16.5027C15.5947 18.0193 17.8897 15.7264 16.3703 14.2077ZM2.15829 6.96292C2.15829 4.31446 4.31375 2.159 6.96221 2.159C9.61067 2.159 11.7661 4.31375 11.7661 6.96292C11.7661 9.61208 9.61067 11.7668 6.96221 11.7668C4.31375 11.7668 2.15829 9.61137 2.15829 6.96292ZM3.58204 5.71342C4.98738 2.45579 9.71904 2.83333 10.6101 6.24396C8.81521 4.13737 5.65675 3.91071 3.58204 5.71342Z" fill="black"/>
</g>
<defs>
<clipPath id="clip0">
<rect width="17" height="17" fill="white"/>
</clipPath>
</defs>
</svg>
