<svg width="14" height="12" viewBox="0 0 14 12" fill="none" xmlns="http://www.w3.org/2000/svg">
<g clip-path="url(#clip0)">
<path d="M7.29166 11H1.74999V4H3.49999V4.75C3.49999 4.888 3.63066 5 3.79166 5C3.95266 5 4.08333 4.888 4.08333 4.75V4H7.58333V4.75C7.58333 4.888 7.71399 5 7.87499 5C8.03599 5 8.16666 4.888 8.16666 4.75V4H9.91666V6.5905C10.1978 6.5335 10.4895 6.5 10.7917 6.5L11.0833 6.5125V3H8.16666V2C8.16666 0.8955 7.12191 0 5.83333 0C4.54474 0 3.49999 0.8955 3.49999 2V3H0.583328V12H8.05933C7.73674 11.712 7.47366 11.3745 7.29166 11ZM4.08333 2C4.08333 1.173 4.86849 0.5 5.83333 0.5C6.79816 0.5 7.58333 1.173 7.58333 2V3H4.08333V2ZM10.7917 7.5C9.34266 7.5 8.16666 8.5075 8.16666 9.75C8.16666 10.9925 9.34266 12 10.7917 12C12.2395 12 13.4167 10.9925 13.4167 9.75C13.4167 8.5075 12.2395 7.5 10.7917 7.5ZM12.25 10H11.0833V11H10.5V10H9.33333V9.5H10.5V8.5H11.0833V9.5H12.25V10Z" fill="black"/>
</g>
<defs>
<clipPath id="clip0">
<rect width="14" height="12" fill="white"/>
</clipPath>
</defs>
</svg>
