<svg width="31" height="31" viewBox="0 0 31 31" fill="none" xmlns="http://www.w3.org/2000/svg">
<path d="M15.2652 14.5606C13.8949 14.5606 12.5807 14.0163 11.6118 13.0473C10.6429 12.0784 10.0985 10.7642 10.0985 9.39396C10.0985 8.02368 10.6429 6.70951 11.6118 5.74058C12.5807 4.77164 13.8949 4.22729 15.2652 4.22729C16.6355 4.22729 17.9496 4.77164 18.9186 5.74058C19.8875 6.70951 20.4318 8.02368 20.4318 9.39396C20.4318 10.7642 19.8875 12.0784 18.9186 13.0473C17.9496 14.0163 16.6355 14.5606 15.2652 14.5606Z" stroke="black" stroke-width="2" stroke-linecap="round"/>
<path d="M4.93182 27.4772V26.1855C4.93182 24.1301 5.74834 22.1589 7.20175 20.7055C8.65515 19.2521 10.6264 18.4355 12.6818 18.4355H17.8485C19.9039 18.4355 21.8752 19.2521 23.3286 20.7055C24.782 22.1589 25.5985 24.1301 25.5985 26.1855V27.4772" stroke="black" stroke-width="2" stroke-linecap="round"/>
</svg>
