<svg width="25" height="25" viewBox="0 0 25 25" fill="none" xmlns="http://www.w3.org/2000/svg">
<path d="M24.3364 8.58008L16.4201 0.663867C15.9927 0.236572 15.4229 0.0012207 14.8153 0.0012207C14.2079 0.0012207 13.6379 0.236475 13.2106 0.66377L0.662646 13.2118C0.235352 13.6391 0 14.2089 0 14.8165C0 15.424 0.235352 15.9939 0.662646 16.4211L1.63882 17.3973C1.63892 17.3974 1.63896 17.3975 1.63906 17.3976C1.63916 17.3977 1.63926 17.3978 1.63936 17.3979L8.1999 23.9584H7.2915C7.00391 23.9584 6.7707 24.1916 6.7707 24.4792C6.7707 24.7668 7.00391 25 7.2915 25H10.1816C10.1823 25 10.1829 25 10.1836 25C10.1843 25 10.1849 25 10.1856 25L17.7077 25.0001C17.9953 25.0001 18.2285 24.7669 18.2285 24.4793C18.2285 24.1917 17.9953 23.9585 17.7077 23.9585L12.1675 23.9584L24.3364 11.7895C25.2212 10.9046 25.2212 9.46484 24.3364 8.58008ZM23.5999 11.0529L11.0518 23.601C10.8217 23.8311 10.5141 23.9579 10.1855 23.9584H10.1815C9.85308 23.9579 9.54556 23.8311 9.31553 23.601L2.7439 17.0293L14.7944 4.97866C14.9978 4.77529 14.9978 4.44551 14.7944 4.24214C14.591 4.03877 14.2613 4.03877 14.0579 4.24219L2.00732 16.2928L1.39912 15.6846C1.1686 15.4541 1.04165 15.1458 1.04165 14.8165C1.04165 14.4872 1.1686 14.1789 1.39917 13.9483L13.9471 1.40034C14.1777 1.16982 14.486 1.04287 14.8153 1.04287C15.1446 1.04287 15.453 1.16982 15.6835 1.40039L18.5011 4.21787L6.45039 16.2687C6.24702 16.472 6.24702 16.8018 6.45039 17.0052C6.5521 17.1069 6.6854 17.1577 6.81865 17.1577C6.9519 17.1577 7.08521 17.1068 7.18691 17.0052L19.2376 4.95444L23.5999 9.31655C24.0785 9.79526 24.0785 10.5742 23.5999 11.0529Z" fill="black"/>
<path d="M12.8322 15.0422C12.6288 14.8388 12.2991 14.8388 12.0956 15.0422L7.99725 19.1404C7.79388 19.3438 7.79388 19.6735 7.99725 19.877C8.09896 19.9787 8.23226 20.0296 8.36552 20.0296C8.49877 20.0296 8.63207 19.9787 8.73378 19.877L12.8321 15.7787C13.0355 15.5753 13.0355 15.2455 12.8322 15.0422Z" fill="black"/>
<path d="M11.1513 18.9328L9.4704 20.6137C9.26703 20.8171 9.26703 21.1469 9.4704 21.3503C9.57211 21.452 9.70541 21.5028 9.83866 21.5028C9.97201 21.5028 10.1052 21.452 10.2069 21.3503L11.8878 19.6694C12.0912 19.466 12.0912 19.1363 11.8878 18.9328C11.6845 18.7294 11.3548 18.7294 11.1513 18.9328Z" fill="black"/>
<path d="M12.698 17.3861L12.477 17.607C12.2736 17.8104 12.2736 18.1401 12.477 18.3436C12.5786 18.4453 12.712 18.4962 12.8452 18.4962C12.9785 18.4962 13.1118 18.4453 13.2135 18.3436L13.4344 18.1227C13.6378 17.9193 13.6378 17.5896 13.4345 17.3862C13.2312 17.1828 12.9013 17.1828 12.698 17.3861Z" fill="black"/>
<path d="M19.8766 7.99775C19.779 7.9001 19.6465 7.84521 19.5084 7.84521C19.3702 7.84521 19.2378 7.9001 19.1401 7.99775L16.9304 10.2074C16.8327 10.3051 16.7778 10.4375 16.7778 10.5757C16.7778 10.7138 16.8327 10.8463 16.9304 10.9439L18.4035 12.4169C18.5052 12.5187 18.6385 12.5695 18.7718 12.5695C18.9051 12.5695 19.0383 12.5186 19.14 12.4169L21.3497 10.2074C21.553 10.004 21.553 9.67422 21.3497 9.47085L19.8766 7.99775ZM18.7717 11.3122L18.0352 10.5757L19.5083 9.10259L20.2448 9.83916L18.7717 11.3122Z" fill="black"/>
<path d="M15.6414 3.91549C15.7748 3.91549 15.9081 3.86461 16.0097 3.76286L16.2307 3.54181C16.434 3.33839 16.4339 3.00861 16.2305 2.80529C16.0272 2.60197 15.6973 2.60201 15.494 2.80543L15.2731 3.02648C15.0697 3.2299 15.0698 3.55968 15.2732 3.763C15.3749 3.86471 15.5081 3.91549 15.6414 3.91549Z" fill="black"/>
<path d="M5.23529 17.4831L5.01434 17.7041C4.81097 17.9074 4.81097 18.2372 5.01434 18.4406C5.11605 18.5423 5.24935 18.5931 5.38261 18.5931C5.51586 18.5931 5.64916 18.5423 5.75087 18.4406L5.97182 18.2197C6.17518 18.0163 6.17518 17.6865 5.97182 17.4831C5.7684 17.2797 5.43871 17.2797 5.23529 17.4831Z" fill="black"/>
</svg>
