<svg width="2" height="5" viewBox="0 0 2 5" fill="none" xmlns="http://www.w3.org/2000/svg">
<path d="M0.955027 1.15718C1.05007 1.15611 1.14167 1.19577 1.20974 1.26747C1.27781 1.33917 1.31679 1.43705 1.31812 1.53964C1.31908 1.61991 1.34955 1.69653 1.40281 1.75263C1.45608 1.80873 1.52778 1.83972 1.60215 1.83879C1.6387 1.83821 1.67478 1.82981 1.70828 1.81407C1.74178 1.79832 1.77204 1.77555 1.79732 1.74707C1.82259 1.7186 1.84236 1.68498 1.8555 1.64817C1.86863 1.61137 1.87486 1.5721 1.87382 1.53265C1.87072 1.32182 1.80556 1.11743 1.68777 0.949058C1.56998 0.780684 1.40566 0.657057 1.21859 0.596065L1.21711 0.472221C1.21614 0.391948 1.18568 0.315333 1.13241 0.259233C1.07914 0.203132 1.00744 0.172141 0.933073 0.173076C0.858706 0.174011 0.787768 0.206795 0.735864 0.264218C0.68396 0.321641 0.655342 0.398998 0.656305 0.479272L0.657792 0.603115C0.473371 0.669342 0.313483 0.797524 0.201493 0.968931C0.0895023 1.14034 0.0312796 1.34599 0.0353326 1.55582C0.0393461 1.81916 0.139842 2.0702 0.314827 2.25399C0.489812 2.43778 0.725033 2.53935 0.96901 2.53649C1.06241 2.53707 1.15196 2.577 1.21858 2.64776C1.2852 2.71853 1.32363 2.81453 1.32568 2.91533C1.32773 3.01613 1.29324 3.11376 1.22956 3.18743C1.16588 3.2611 1.07804 3.30498 0.984741 3.30973C0.983246 3.30975 0.98203 3.30976 0.980535 3.30978C0.979039 3.3098 0.977637 3.30982 0.976189 3.30984C0.881962 3.30966 0.791537 3.26946 0.724454 3.19794C0.657371 3.12643 0.619018 3.02932 0.617683 2.92762C0.616719 2.84735 0.586254 2.77074 0.532987 2.71464C0.479721 2.65853 0.408017 2.62754 0.33365 2.62848C0.258754 2.62921 0.187179 2.66177 0.134431 2.71909C0.0816828 2.77641 0.0520079 2.85389 0.0518352 2.93474C0.0528029 3.14463 0.115942 3.34878 0.232023 3.51734C0.348104 3.6859 0.511041 3.81004 0.69702 3.87161L0.698883 4.02683C0.699846 4.1071 0.730312 4.18371 0.783579 4.23981C0.836845 4.29591 0.908549 4.32691 0.982916 4.32597C1.05728 4.32504 1.12822 4.29225 1.18012 4.23483C1.23203 4.17741 1.26065 4.10005 1.25968 4.01978L1.25782 3.86456C1.46648 3.79135 1.64384 3.63985 1.75777 3.43751C1.8717 3.23517 1.91466 2.99537 1.87886 2.76158C1.84306 2.52778 1.73088 2.31545 1.56263 2.16306C1.39439 2.01067 1.18121 1.92831 0.961742 1.93089C0.86733 1.93061 0.776782 1.89014 0.709759 1.81827C0.642736 1.7464 0.604648 1.64893 0.603763 1.54702C0.602879 1.44512 0.63927 1.347 0.705035 1.27397C0.7708 1.20095 0.860631 1.15891 0.955024 1.15698L0.955027 1.15718Z" fill="black"/>
</svg>
