<svg width="3" height="3" viewBox="0 0 3 3" fill="none" xmlns="http://www.w3.org/2000/svg">
<path d="M1.70877 0.220775L1.44466 0.222229C0.912711 0.225157 0.48253 0.71275 0.485547 1.28695C0.488564 1.86115 0.923844 2.34398 1.4558 2.34105L1.7199 2.3396C2.25181 2.33667 2.68199 1.84908 2.67897 1.27488C2.67595 0.700676 2.24067 0.217847 1.70877 0.220775ZM1.71672 1.73422L1.45262 1.73567C1.3439 1.73164 1.24083 1.68235 1.16501 1.59812C1.08918 1.5139 1.04649 1.40128 1.04587 1.28387C1.04525 1.16646 1.08676 1.05337 1.1617 0.968316C1.23664 0.883259 1.33918 0.832834 1.44784 0.827607L1.71195 0.826154C1.82066 0.830183 1.92373 0.879477 1.99956 0.963704C2.07538 1.04793 2.11808 1.16055 2.1187 1.27796C2.11931 1.39537 2.0778 1.50846 2.00287 1.59351C1.92793 1.67857 1.82538 1.72899 1.71672 1.73422V1.73422Z" fill="black"/>
</svg>
