<svg width="8" height="8" viewBox="0 0 8 8" fill="none" xmlns="http://www.w3.org/2000/svg">
<path d="M3.89567 0.8371C3.27951 0.840481 2.67822 1.04101 2.16784 1.41333C1.65746 1.78565 1.26091 2.31304 1.02834 2.9288C0.795766 3.54457 0.737618 4.22105 0.861247 4.87271C0.984875 5.52436 1.28473 6.12192 1.72289 6.58982C2.16104 7.05772 2.71783 7.37495 3.32283 7.50138C3.92783 7.62781 4.55387 7.55777 5.12179 7.30012C5.68971 7.04246 6.174 6.60877 6.51342 6.05388C6.85283 5.49899 7.03213 4.84782 7.02863 4.18273C7.02302 3.29118 6.69001 2.43825 6.10267 1.81104C5.51533 1.18383 4.72162 0.833568 3.89567 0.8371V0.8371ZM3.92782 6.95722C3.42259 6.96001 2.92784 6.80102 2.50616 6.50035C2.08447 6.19968 1.75478 5.77083 1.55878 5.26805C1.36279 4.76526 1.30928 4.21112 1.40503 3.67569C1.50079 3.14026 1.7415 2.64759 2.09673 2.25999C2.45196 1.8724 2.90576 1.60727 3.40073 1.49815C3.8957 1.38903 4.40962 1.44081 4.87749 1.64695C5.34537 1.85309 5.74618 2.20432 6.02925 2.65624C6.31233 3.10815 6.46494 3.64045 6.4678 4.18581C6.47087 4.91686 6.20518 5.6192 5.72901 6.13876C5.25283 6.65832 4.60507 6.95266 3.92782 6.95722V6.95722Z" fill="black"/>
</svg>
