<svg width="4" height="2" viewBox="0 0 4 2" fill="none" xmlns="http://www.w3.org/2000/svg">
<path d="M3.65716 0.681131L3.54743 0.681735C3.48848 0.484188 3.37227 0.312296 3.21594 0.19143C3.05962 0.0705643 2.87146 0.00712939 2.67925 0.0104892C2.4381 0.0124439 2.20755 0.117491 2.03811 0.302619C1.86867 0.487746 1.77415 0.737861 1.77526 0.998172C1.77588 1.04753 1.76748 1.09652 1.75056 1.14236C1.73363 1.18821 1.7085 1.22999 1.67661 1.26535C1.64472 1.3007 1.60668 1.32892 1.56468 1.34839C1.52267 1.36787 1.47752 1.37822 1.4318 1.37886C1.33946 1.38015 1.2504 1.3418 1.18423 1.27223C1.11805 1.20266 1.08017 1.10758 1.07892 1.00791C1.07891 1.00624 1.0789 1.00483 1.07889 1.00322C1.07889 1.0016 1.07888 1.00004 1.07887 0.998423C1.0796 0.899621 1.11631 0.805118 1.18107 0.735325C1.24582 0.665532 1.33343 0.626051 1.42496 0.625411C1.49966 0.625 1.57112 0.592577 1.62364 0.535276C1.67616 0.477974 1.70542 0.400487 1.705 0.319861C1.70458 0.239235 1.6745 0.162075 1.62138 0.105354C1.56826 0.0486337 1.49646 0.0169998 1.42177 0.0174109C1.22962 0.0162836 1.04225 0.0818386 0.887298 0.204409C0.732348 0.326979 0.618017 0.500076 0.561168 0.698172L0.422642 0.698935C0.34827 0.699344 0.277113 0.731627 0.224823 0.788681C0.172533 0.845736 0.143393 0.922889 0.143815 1.00317C0.144237 1.08345 0.174186 1.16027 0.227072 1.21675C0.279959 1.27322 0.351451 1.30472 0.425823 1.30431L0.564209 1.30355C0.631492 1.52579 0.770096 1.71481 0.955036 1.83655C1.13998 1.9583 1.35909 2.00475 1.57287 1.96753C1.78665 1.93032 1.98104 1.81189 2.12099 1.63358C2.26095 1.45528 2.33727 1.22884 2.33619 0.995085C2.33601 0.920769 2.35624 0.848077 2.39432 0.786187C2.43239 0.724298 2.48662 0.675987 2.55013 0.647356C2.61365 0.618726 2.68362 0.61106 2.75119 0.625327C2.81876 0.639594 2.88092 0.675153 2.9298 0.727515C2.97868 0.779876 3.01211 0.846691 3.02584 0.919521C3.03958 0.99235 3.03301 1.06793 3.00698 1.13671C2.98095 1.20549 2.93661 1.26439 2.87957 1.30597C2.82253 1.34755 2.75534 1.36994 2.68649 1.37032C2.64952 1.37 2.61286 1.37762 2.57864 1.39273C2.54442 1.40783 2.51333 1.43012 2.48716 1.4583C2.46099 1.48649 2.44027 1.52 2.42621 1.55691C2.41214 1.59381 2.40501 1.63336 2.40522 1.67328C2.40542 1.71319 2.41297 1.75266 2.42743 1.78941C2.44188 1.82616 2.46295 1.85944 2.48941 1.88734C2.51587 1.91523 2.5472 1.93718 2.58158 1.9519C2.61595 1.96663 2.65269 1.97384 2.68966 1.97312C2.88231 1.97329 3.06991 1.90677 3.22489 1.78333C3.37987 1.6599 3.49406 1.48604 3.5507 1.28731L3.66044 1.28671C3.73481 1.2863 3.80597 1.25402 3.85826 1.19696C3.91055 1.13991 3.93969 1.06276 3.93926 0.982477C3.93884 0.902199 3.90889 0.825371 3.85601 0.768896C3.80312 0.71242 3.73163 0.680922 3.65726 0.681332L3.65716 0.681131Z" fill="black"/>
</svg>
