<svg width="4" height="4" viewBox="0 0 4 4" fill="none" xmlns="http://www.w3.org/2000/svg">
<path d="M2.00648 0.303341C1.75633 0.304718 1.51222 0.386133 1.30501 0.537291C1.09781 0.688449 0.93682 0.902561 0.842403 1.15255C0.747986 1.40254 0.724382 1.67718 0.774575 1.94174C0.824769 2.2063 0.946505 2.4489 1.12439 2.63885C1.30228 2.82881 1.52832 2.9576 1.77394 3.00892C2.01956 3.06025 2.27372 3.03181 2.50429 2.92721C2.73485 2.82261 2.93146 2.64654 3.06926 2.42126C3.20705 2.19598 3.27984 1.93162 3.27843 1.66161C3.27613 1.29966 3.14093 0.953391 2.90247 0.698758C2.66402 0.444126 2.3418 0.301922 2.00648 0.303341V0.303341ZM2.01764 2.42842C1.87842 2.42919 1.74208 2.38537 1.62588 2.30251C1.50968 2.21966 1.41883 2.10148 1.36482 1.96293C1.31081 1.82438 1.29607 1.67168 1.32245 1.52413C1.34884 1.37658 1.41518 1.24082 1.51306 1.13401C1.61095 1.0272 1.736 0.954146 1.8724 0.924075C2.0088 0.894004 2.15042 0.908273 2.27935 0.965076C2.40828 1.02188 2.51873 1.11867 2.59674 1.2432C2.67474 1.36773 2.7168 1.51441 2.71759 1.66469C2.71846 1.86617 2.64526 2.05975 2.51404 2.20296C2.38282 2.34616 2.2043 2.4273 2.01764 2.42857L2.01764 2.42842Z" fill="black"/>
</svg>
