<svg width="24" height="26" viewBox="0 0 24 26" fill="none" xmlns="http://www.w3.org/2000/svg">
<path d="M21.8134 14.5948L21.8343 12.1936C21.8383 11.7202 21.6688 11.2645 21.3627 10.9257C21.0565 10.587 20.6387 10.3928 20.2002 10.3853L19.7001 10.3808L19.7402 5.77544C19.7396 5.72824 19.729 5.68183 19.7091 5.63978C19.6893 5.59774 19.6608 5.56118 19.6257 5.53294C19.593 5.50447 19.5544 5.4849 19.5132 5.47587C19.472 5.46684 19.4294 5.46861 19.3889 5.48103L17.8693 5.93339L17.9051 1.82096C17.9033 1.45944 17.7687 1.11358 17.5309 0.859267C17.2931 0.604957 16.9714 0.462974 16.6365 0.464476L9.68134 0.509784C9.3988 0.513075 9.12554 0.619651 8.90617 0.812116C8.6868 1.00458 8.53428 1.27157 8.47351 1.56949C8.19356 1.63133 7.9416 1.7948 7.75958 2.03267C7.57756 2.27055 7.47647 2.56847 7.47313 2.87684L7.41956 9.03186L3.56366 10.2461L3.5563 10.2586C3.49649 10.2756 3.44325 10.3128 3.40436 10.3648C3.36547 10.4167 3.34295 10.4807 3.3401 10.5474L3.28585 16.7808C2.68619 17.0261 2.14518 17.4138 1.70287 17.9152C1.26056 18.4166 0.928266 19.0188 0.730572 19.6773C0.532877 20.3358 0.474844 21.0337 0.560769 21.7194C0.646693 22.405 0.874375 23.0609 1.22697 23.6385C1.57956 24.2161 2.04803 24.7006 2.59773 25.0561C3.14742 25.4117 3.76427 25.6292 4.40261 25.6925C5.04096 25.7559 5.68447 25.6635 6.28553 25.4221C6.88658 25.1808 7.4298 24.7967 7.87499 24.2983L20.0781 24.4096C20.9873 24.4179 21.735 23.6074 21.7435 22.626L21.7644 20.2248C22.173 20.1859 22.5539 19.9846 22.833 19.6599C23.1122 19.3353 23.2698 18.9104 23.2753 18.4677L23.2935 16.3794C23.2958 15.9366 23.1456 15.5089 22.8721 15.1791C22.5986 14.8494 22.2213 14.6412 21.8134 14.5948V14.5948ZM17.8638 6.56237L19.1759 6.17072L19.1393 10.3757L17.8307 10.3637L17.8638 6.56237ZM8.97773 1.84834C8.98269 1.65312 9.0577 1.46755 9.18695 1.33077C9.31619 1.19399 9.48955 1.11669 9.67047 1.1152L16.6283 1.06981C16.8159 1.0682 16.9965 1.14624 17.1312 1.2871C17.1973 1.35563 17.2502 1.43764 17.2868 1.5284C17.3233 1.61916 17.3429 1.71686 17.3442 1.81585L17.2699 10.3586L16.8493 10.3548L16.9136 2.96246C16.9121 2.88299 16.8822 2.80726 16.8303 2.75096L15.8234 1.61103C15.7971 1.5813 15.7655 1.55748 15.7306 1.54095C15.6957 1.52442 15.6581 1.51549 15.62 1.51468L10.6763 1.4696C10.6386 1.46973 10.6013 1.478 10.5665 1.49393C10.5318 1.50986 10.5004 1.53313 10.4741 1.56235L9.47676 2.64805C9.42378 2.70382 9.39258 2.77936 9.38958 2.85914L9.32493 10.2862L8.90432 10.2824L8.97773 1.84834ZM13.1282 5.63347C12.2984 5.62544 11.4994 5.97331 10.9066 6.60065C10.3138 7.22799 9.97575 8.08348 9.96677 8.97911C9.96166 9.43041 10.0422 9.87797 10.2036 10.2942L9.88575 10.2913L9.94933 2.98684L10.7898 2.07605L15.496 2.11896L16.3517 3.08028L16.2885 10.3497L15.9712 10.3468C16.1397 9.93355 16.228 9.48754 16.2308 9.03622C16.2374 8.14057 15.9143 7.27906 15.3326 6.64101C14.7508 6.00296 13.9579 5.64057 13.1282 5.63347V5.63347ZM15.67 9.02949C15.6663 9.4886 15.5562 9.93951 15.3497 10.3411L10.8251 10.2999C10.6257 9.89514 10.5234 9.44281 10.5277 8.98422C10.5368 8.2502 10.8149 7.54969 11.3011 7.03599C11.7874 6.52228 12.4422 6.23723 13.1222 6.24322C13.8022 6.2492 14.4521 6.54574 14.9296 7.06793C15.4071 7.59012 15.6734 8.29543 15.6701 9.02949L15.67 9.02949ZM8.03396 2.88195C8.03655 2.58391 8.17901 2.32614 8.4137 2.21169L8.3435 10.2772L7.96962 10.2738L8.03396 2.88195ZM7.41406 9.66406L7.4088 10.2687L5.50131 10.2513L7.41406 9.66406ZM7.59166 23.7285L7.49207 23.6201C7.43989 23.5629 7.36875 23.5304 7.29432 23.5297C7.21989 23.5291 7.14825 23.5605 7.09517 23.6169C7.04209 23.6732 7.01191 23.7501 7.01128 23.8304C7.01065 23.9107 7.03961 23.988 7.09179 24.0453L7.18628 24.1548C6.58346 24.7123 5.82836 25.0415 5.03631 25.0924L5.03767 24.9372C5.03836 24.857 5.00949 24.7797 4.9574 24.7225C4.9053 24.6652 4.83426 24.6327 4.75989 24.632C4.68552 24.6313 4.61392 24.6626 4.56084 24.7188C4.50776 24.7751 4.47754 24.8519 4.47684 24.9321L4.47549 25.0873C3.68971 25.0124 2.94637 24.6705 2.35229 24.1108L2.45605 24.0033C2.48233 23.9755 2.5033 23.9425 2.51775 23.906C2.53221 23.8696 2.53988 23.8304 2.54031 23.7907C2.54075 23.7511 2.53394 23.7117 2.52028 23.6749C2.50663 23.6381 2.48639 23.6046 2.46072 23.5763C2.43505 23.5479 2.40446 23.5253 2.37069 23.5098C2.33692 23.4942 2.30063 23.4859 2.2639 23.4855C2.22717 23.4851 2.19071 23.4925 2.15661 23.5072C2.1225 23.522 2.09142 23.5439 2.06514 23.5716L1.96401 23.6773C1.45625 23.0232 1.15315 22.2124 1.09801 21.3608L1.24177 21.3621C1.31614 21.3628 1.38774 21.3316 1.44082 21.2753C1.4939 21.219 1.52411 21.1423 1.52481 21.062C1.52551 20.9817 1.49664 20.9045 1.44454 20.8472C1.39245 20.79 1.32141 20.7575 1.24704 20.7568L1.10328 20.7555C1.1734 19.9061 1.4908 19.1023 2.00999 18.4592L2.10957 18.5697C2.13531 18.5981 2.16597 18.6206 2.19981 18.6362C2.23365 18.6517 2.27 18.6599 2.30678 18.6603C2.34356 18.6607 2.38006 18.6532 2.41419 18.6384C2.44832 18.6235 2.47941 18.6016 2.50569 18.5737C2.53197 18.5459 2.55292 18.5128 2.56735 18.4763C2.58177 18.4397 2.5894 18.4005 2.58978 18.3608C2.59016 18.3211 2.58329 18.2817 2.56956 18.2449C2.55584 18.208 2.53553 18.1745 2.50978 18.1462L2.40515 18.0367C3.00889 17.488 3.75806 17.1597 4.54502 17.0992L4.54367 17.2544C4.54297 17.3346 4.57185 17.4119 4.62394 17.4691C4.67603 17.5264 4.74708 17.5589 4.82145 17.5596C4.89582 17.5603 4.96742 17.529 5.0205 17.4728C5.07358 17.4165 5.10379 17.3398 5.10449 17.2595L5.10584 17.1043C5.89688 17.1695 6.64613 17.5125 7.23914 18.0809L7.14006 18.1885C7.08769 18.2452 7.0582 18.322 7.05801 18.4021C7.05782 18.4822 7.08695 18.559 7.13905 18.616C7.19115 18.6729 7.262 18.7053 7.33618 18.7061C7.41035 18.7069 7.48184 18.676 7.53507 18.6202L7.63675 18.5106C8.1447 19.163 8.44815 19.9725 8.50363 20.8229L8.35983 20.8216C8.28546 20.8209 8.21386 20.8522 8.16078 20.9085C8.1077 20.9648 8.07748 21.0415 8.07678 21.1218C8.07608 21.202 8.10496 21.2793 8.15705 21.3365C8.20914 21.3938 8.28019 21.4263 8.35456 21.427L8.49836 21.4283C8.42823 22.2788 8.11089 23.0839 7.59166 23.7285ZM21.1827 22.6209C21.1771 23.2686 20.6835 23.8097 20.0834 23.8042L8.32952 23.6971C8.81477 22.9304 9.07479 22.0239 9.07563 21.0958C9.07648 20.1677 8.81811 19.2612 8.33425 18.4945C7.8504 17.7278 7.16352 17.1366 6.36327 16.798C5.56303 16.4594 4.68658 16.3892 3.84832 16.5965L3.8984 10.8421L20.1949 10.9907C20.4847 10.9966 20.7605 11.1257 20.9625 11.3499C21.1644 11.5741 21.2762 11.8754 21.2735 12.1883L21.2527 14.5824L18.7049 14.5591C18.2669 14.5549 17.845 14.738 17.5314 15.0683C17.2177 15.3987 17.0378 15.8495 17.031 16.3223L17.0129 18.4102C17.0112 18.8836 17.183 19.3383 17.4907 19.6753C17.7985 20.0123 18.2172 20.2042 18.6558 20.2092L21.2035 20.2324L21.1827 22.6209ZM22.7145 18.4661C22.7118 18.7776 22.5945 19.0754 22.3886 19.2938C22.1826 19.5122 21.9047 19.6334 21.6161 19.6308L18.6515 19.6037C18.363 19.6011 18.0873 19.4748 17.8851 19.2527C17.683 19.0306 17.5709 18.7308 17.5736 18.4193L17.5918 16.329C17.5945 16.0175 17.7118 15.7198 17.9178 15.5014C18.1238 15.283 18.4016 15.1618 18.6902 15.1644L21.6548 15.1914C21.9434 15.1941 22.2191 15.3203 22.4212 15.5425C22.6234 15.7646 22.7354 16.0644 22.7327 16.3759L22.7145 18.4661Z" fill="black"/>
</svg>
