<svg width="25" height="26" viewBox="0 0 25 26" fill="none" xmlns="http://www.w3.org/2000/svg">
<path d="M4.89567 17.8371C4.27951 17.8405 3.67822 18.041 3.16784 18.4133C2.65746 18.7857 2.26091 19.313 2.02834 19.9288C1.79577 20.5446 1.73762 21.2211 1.86125 21.8727C1.98488 22.5244 2.28473 23.1219 2.72289 23.5898C3.16104 24.0577 3.71783 24.3749 4.32283 24.5014C4.92783 24.6278 5.55387 24.5578 6.12179 24.3001C6.68971 24.0425 7.174 23.6088 7.51342 23.0539C7.85283 22.499 8.03213 21.8478 8.02863 21.1827C8.02302 20.2912 7.69001 19.4382 7.10267 18.811C6.51533 18.1838 5.72162 17.8336 4.89567 17.8371ZM4.92782 23.9572C4.42259 23.96 3.92784 23.801 3.50616 23.5003C3.08447 23.1997 2.75478 22.7708 2.55878 22.268C2.36279 21.7653 2.30928 21.2111 2.40503 20.6757C2.50079 20.1403 2.7415 19.6476 3.09673 19.26C3.45196 18.8724 3.90576 18.6073 4.40073 18.4982C4.8957 18.389 5.40962 18.4408 5.87749 18.647C6.34537 18.8531 6.74618 19.2043 7.02925 19.6562C7.31233 20.1082 7.46494 20.6404 7.4678 21.1858C7.47087 21.9169 7.20518 22.6192 6.72901 23.1388C6.25283 23.6583 5.60507 23.9527 4.92782 23.9572Z" fill="black"/>
<path d="M4.95503 20.1572C5.05007 20.1561 5.14167 20.1958 5.20974 20.2675C5.27781 20.3392 5.31679 20.4371 5.31812 20.5396C5.31908 20.6199 5.34955 20.6965 5.40281 20.7526C5.45608 20.8087 5.52778 20.8397 5.60215 20.8388C5.6387 20.8382 5.67478 20.8298 5.70828 20.8141C5.74178 20.7983 5.77205 20.7756 5.79732 20.7471C5.82259 20.7186 5.84236 20.685 5.8555 20.6482C5.86863 20.6114 5.87486 20.5721 5.87382 20.5327C5.87072 20.3218 5.80556 20.1174 5.68777 19.9491C5.56998 19.7807 5.40566 19.6571 5.21859 19.5961L5.21711 19.4722C5.21614 19.3919 5.18568 19.3153 5.13241 19.2592C5.07914 19.2031 5.00744 19.1721 4.93307 19.1731C4.85871 19.174 4.78777 19.2068 4.73586 19.2642C4.68396 19.3216 4.65534 19.399 4.65631 19.4793L4.65779 19.6031C4.47337 19.6693 4.31348 19.7975 4.20149 19.9689C4.0895 20.1403 4.03128 20.346 4.03533 20.5558C4.03935 20.8192 4.13984 21.0702 4.31483 21.254C4.48981 21.4378 4.72503 21.5394 4.96901 21.5365C5.06241 21.5371 5.15196 21.577 5.21858 21.6478C5.2852 21.7185 5.32363 21.8145 5.32568 21.9153C5.32773 22.0161 5.29324 22.1138 5.22956 22.1874C5.16588 22.2611 5.07804 22.305 4.98474 22.3097C4.98325 22.3097 4.98203 22.3098 4.98053 22.3098C4.97904 22.3098 4.97764 22.3098 4.97619 22.3098C4.88196 22.3097 4.79154 22.2695 4.72445 22.1979C4.65737 22.1264 4.61902 22.0293 4.61768 21.9276C4.61672 21.8474 4.58625 21.7707 4.53299 21.7146C4.47972 21.6585 4.40802 21.6275 4.33365 21.6285C4.25875 21.6292 4.18718 21.6618 4.13443 21.7191C4.08168 21.7764 4.05201 21.8539 4.05184 21.9347C4.0528 22.1446 4.11594 22.3488 4.23202 22.5173C4.3481 22.6859 4.51104 22.81 4.69702 22.8716L4.69888 23.0268C4.69985 23.1071 4.73031 23.1837 4.78358 23.2398C4.83685 23.2959 4.90855 23.3269 4.98292 23.326C5.05728 23.325 5.12822 23.2923 5.18012 23.2348C5.23203 23.1774 5.26065 23.1 5.25968 23.0198L5.25782 22.8646C5.46648 22.7913 5.64384 22.6398 5.75777 22.4375C5.8717 22.2352 5.91466 21.9954 5.87886 21.7616C5.84306 21.5278 5.73088 21.3154 5.56263 21.1631C5.39439 21.0107 5.18121 20.9283 4.96174 20.9309C4.86733 20.9306 4.77678 20.8901 4.70976 20.8183C4.64274 20.7464 4.60465 20.6489 4.60376 20.547C4.60288 20.4451 4.63927 20.347 4.70503 20.274C4.7708 20.2009 4.86063 20.1589 4.95502 20.157L4.95503 20.1572Z" fill="black"/>
<path d="M21.8134 14.5948L21.8343 12.1936C21.8383 11.7202 21.6688 11.2645 21.3627 10.9257C21.0565 10.587 20.6387 10.3928 20.2002 10.3853L19.7001 10.3808L19.7402 5.77544C19.7396 5.72824 19.729 5.68183 19.7091 5.63978C19.6893 5.59774 19.6608 5.56118 19.6257 5.53294C19.593 5.50447 19.5544 5.4849 19.5132 5.47587C19.472 5.46684 19.4294 5.46861 19.3889 5.48103L17.8693 5.93339L17.9051 1.82096C17.9033 1.45944 17.7687 1.11358 17.5309 0.859267C17.2931 0.604957 16.9714 0.462974 16.6365 0.464476L9.68134 0.509784C9.3988 0.513075 9.12554 0.619651 8.90617 0.812116C8.6868 1.00458 8.53428 1.27157 8.47351 1.56949C8.19356 1.63133 7.9416 1.7948 7.75958 2.03267C7.57756 2.27055 7.47647 2.56847 7.47313 2.87684L7.41956 9.03186L3.56366 10.2461L3.5563 10.2586C3.49649 10.2756 3.44325 10.3128 3.40436 10.3648C3.36547 10.4167 3.34295 10.4807 3.3401 10.5474L3.28585 16.7808C2.68619 17.0261 2.14518 17.4138 1.70287 17.9152C1.26056 18.4166 0.928266 19.0188 0.730572 19.6773C0.532877 20.3358 0.474844 21.0337 0.560769 21.7194C0.646693 22.405 0.874375 23.0609 1.22697 23.6385C1.57956 24.2161 2.04803 24.7006 2.59773 25.0561C3.14742 25.4117 3.76427 25.6292 4.40261 25.6925C5.04096 25.7559 5.68447 25.6635 6.28553 25.4221C6.88658 25.1808 7.4298 24.7967 7.87499 24.2983L20.0781 24.4096C20.9873 24.4179 21.735 23.6074 21.7435 22.626L21.7644 20.2248C22.173 20.1859 22.5539 19.9846 22.833 19.6599C23.1122 19.3353 23.2698 18.9104 23.2753 18.4677L23.2935 16.3794C23.2958 15.9366 23.1456 15.5089 22.8721 15.1791C22.5986 14.8494 22.2213 14.6412 21.8134 14.5948ZM17.8638 6.56237L19.1759 6.17072L19.1393 10.3757L17.8307 10.3637L17.8638 6.56237ZM8.97773 1.84834C8.98269 1.65312 9.0577 1.46755 9.18695 1.33077C9.31619 1.19399 9.48955 1.11669 9.67047 1.1152L16.6283 1.06981C16.8159 1.0682 16.9965 1.14624 17.1312 1.2871C17.1973 1.35563 17.2502 1.43764 17.2868 1.5284C17.3233 1.61916 17.3429 1.71686 17.3442 1.81585L17.2699 10.3586L16.8493 10.3548L16.9136 2.96246C16.9121 2.88299 16.8822 2.80726 16.8303 2.75096L15.8234 1.61103C15.7971 1.5813 15.7655 1.55748 15.7306 1.54095C15.6957 1.52442 15.6581 1.51549 15.62 1.51468L10.6763 1.4696C10.6386 1.46973 10.6013 1.478 10.5665 1.49393C10.5318 1.50986 10.5004 1.53313 10.4741 1.56235L9.47676 2.64805C9.42378 2.70382 9.39258 2.77936 9.38958 2.85914L9.32493 10.2862L8.90432 10.2824L8.97773 1.84834ZM13.1282 5.63347C12.2984 5.62544 11.4994 5.97331 10.9066 6.60065C10.3138 7.22799 9.97575 8.08348 9.96677 8.97911C9.96166 9.43041 10.0422 9.87797 10.2036 10.2942L9.88575 10.2913L9.94933 2.98684L10.7898 2.07605L15.496 2.11896L16.3517 3.08028L16.2885 10.3497L15.9712 10.3468C16.1397 9.93355 16.228 9.48754 16.2308 9.03622C16.2374 8.14057 15.9143 7.27906 15.3326 6.64101C14.7508 6.00296 13.9579 5.64057 13.1282 5.63347ZM15.67 9.02949C15.6663 9.4886 15.5562 9.93951 15.3497 10.3411L10.8251 10.2999C10.6257 9.89514 10.5234 9.44281 10.5277 8.98422C10.5368 8.2502 10.8149 7.54969 11.3011 7.03599C11.7874 6.52228 12.4422 6.23723 13.1222 6.24322C13.8022 6.24921 14.4521 6.54574 14.9296 7.06793C15.4071 7.59012 15.6734 8.29543 15.6701 9.02949L15.67 9.02949ZM8.03396 2.88195C8.03655 2.58391 8.17901 2.32614 8.4137 2.21169L8.3435 10.2772L7.96962 10.2738L8.03396 2.88195ZM7.41406 9.66406L7.4088 10.2687L5.50131 10.2513L7.41406 9.66406ZM7.59166 23.7285L7.49207 23.6201C7.43989 23.5629 7.36875 23.5304 7.29432 23.5297C7.21989 23.5291 7.14825 23.5605 7.09517 23.6169C7.04209 23.6732 7.01191 23.7501 7.01128 23.8304C7.01065 23.9107 7.03961 23.988 7.09179 24.0453L7.18628 24.1548C6.58346 24.7123 5.82836 25.0416 5.03631 25.0924L5.03767 24.9372C5.03836 24.857 5.00949 24.7797 4.9574 24.7225C4.9053 24.6652 4.83426 24.6327 4.75989 24.632C4.68552 24.6313 4.61392 24.6626 4.56084 24.7188C4.50776 24.7751 4.47754 24.8519 4.47684 24.9321L4.47549 25.0873C3.68971 25.0124 2.94637 24.6705 2.35229 24.1108L2.45605 24.0033C2.48233 23.9755 2.5033 23.9425 2.51775 23.906C2.53221 23.8696 2.53988 23.8304 2.54031 23.7907C2.54075 23.7511 2.53394 23.7117 2.52028 23.6749C2.50663 23.6381 2.48639 23.6046 2.46072 23.5763C2.43505 23.5479 2.40446 23.5253 2.37069 23.5098C2.33692 23.4942 2.30063 23.4859 2.2639 23.4855C2.22717 23.4851 2.19071 23.4925 2.15661 23.5072C2.1225 23.522 2.09142 23.5439 2.06514 23.5716L1.96401 23.6773C1.45625 23.0232 1.15315 22.2124 1.09801 21.3608L1.24177 21.3621C1.31614 21.3628 1.38774 21.3316 1.44082 21.2753C1.4939 21.219 1.52411 21.1423 1.52481 21.062C1.52551 20.9817 1.49664 20.9045 1.44454 20.8472C1.39245 20.79 1.32141 20.7575 1.24704 20.7568L1.10328 20.7555C1.1734 19.9061 1.4908 19.1023 2.00999 18.4592L2.10957 18.5697C2.13531 18.5981 2.16597 18.6206 2.19981 18.6362C2.23365 18.6517 2.27 18.6599 2.30678 18.6603C2.34356 18.6607 2.38006 18.6532 2.41419 18.6384C2.44832 18.6235 2.47941 18.6016 2.50569 18.5737C2.53197 18.5459 2.55292 18.5128 2.56735 18.4763C2.58177 18.4397 2.5894 18.4005 2.58978 18.3608C2.59016 18.3211 2.58329 18.2817 2.56956 18.2449C2.55584 18.208 2.53553 18.1745 2.50978 18.1462L2.40515 18.0367C3.00889 17.488 3.75806 17.1597 4.54502 17.0992L4.54367 17.2544C4.54297 17.3346 4.57185 17.4119 4.62394 17.4691C4.67603 17.5264 4.74708 17.5589 4.82145 17.5596C4.89582 17.5603 4.96742 17.529 5.0205 17.4728C5.07358 17.4165 5.10379 17.3398 5.10449 17.2595L5.10584 17.1043C5.89688 17.1695 6.64613 17.5125 7.23914 18.0809L7.14006 18.1885C7.08769 18.2452 7.0582 18.322 7.05801 18.4021C7.05782 18.4822 7.08695 18.559 7.13905 18.616C7.19115 18.6729 7.262 18.7053 7.33618 18.7061C7.41035 18.7069 7.48184 18.676 7.53507 18.6202L7.63675 18.5106C8.1447 19.163 8.44815 19.9725 8.50363 20.8229L8.35983 20.8216C8.28546 20.8209 8.21386 20.8522 8.16078 20.9085C8.1077 20.9648 8.07748 21.0415 8.07678 21.1218C8.07608 21.202 8.10496 21.2793 8.15705 21.3365C8.20914 21.3938 8.28019 21.4263 8.35456 21.427L8.49836 21.4283C8.42823 22.2788 8.11089 23.0839 7.59166 23.7285ZM21.1827 22.6209C21.1771 23.2686 20.6835 23.8097 20.0834 23.8042L8.32952 23.6971C8.81477 22.9304 9.07479 22.0239 9.07563 21.0958C9.07648 20.1677 8.81811 19.2612 8.33425 18.4945C7.8504 17.7278 7.16352 17.1366 6.36327 16.798C5.56303 16.4594 4.68658 16.3892 3.84832 16.5965L3.8984 10.8421L20.1949 10.9907C20.4847 10.9966 20.7605 11.1257 20.9625 11.3499C21.1644 11.5741 21.2762 11.8754 21.2735 12.1883L21.2527 14.5824L18.7049 14.5591C18.2669 14.5549 17.845 14.738 17.5314 15.0683C17.2177 15.3987 17.0378 15.8495 17.031 16.3223L17.0129 18.4102C17.0112 18.8836 17.183 19.3383 17.4907 19.6753C17.7985 20.0123 18.2172 20.2042 18.6558 20.2092L21.2035 20.2324L21.1827 22.6209ZM22.7145 18.4661C22.7118 18.7776 22.5945 19.0754 22.3886 19.2938C22.1826 19.5122 21.9047 19.6334 21.6161 19.6308L18.6515 19.6037C18.363 19.6011 18.0873 19.4748 17.8851 19.2527C17.683 19.0306 17.5709 18.7308 17.5736 18.4193L17.5918 16.329C17.5945 16.0175 17.7118 15.7198 17.9178 15.5014C18.1238 15.283 18.4016 15.1618 18.6902 15.1644L21.6548 15.1914C21.9434 15.1941 22.2191 15.3203 22.4212 15.5425C22.6234 15.7646 22.7354 16.0644 22.7327 16.3759L22.7145 18.4661Z" fill="black"/>
<path d="M19.7088 16.2208L19.4447 16.2222C18.9127 16.2252 18.4825 16.7127 18.4855 17.287C18.4886 17.8612 18.9238 18.344 19.4558 18.3411L19.7199 18.3396C20.2518 18.3367 20.682 17.8491 20.679 17.2749C20.676 16.7007 20.2407 16.2178 19.7088 16.2208ZM19.7167 17.7342L19.4526 17.7357C19.3439 17.7316 19.2408 17.6824 19.165 17.5981C19.0892 17.5139 19.0465 17.4013 19.0459 17.2839C19.0453 17.1665 19.0868 17.0534 19.1617 16.9683C19.2366 16.8833 19.3392 16.8328 19.4478 16.8276L19.712 16.8262C19.8207 16.8302 19.9237 16.8795 19.9996 16.9637C20.0754 17.0479 20.1181 17.1606 20.1187 17.278C20.1193 17.3954 20.0778 17.5085 20.0029 17.5935C19.9279 17.6786 19.8254 17.729 19.7167 17.7342Z" fill="black"/>
<path d="M14.6572 8.68113L14.5474 8.68173C14.4885 8.48419 14.3723 8.3123 14.2159 8.19143C14.0596 8.07056 13.8715 8.00713 13.6793 8.01049C13.4381 8.01244 13.2076 8.11749 13.0381 8.30262C12.8687 8.48775 12.7741 8.73786 12.7753 8.99817C12.7759 9.04753 12.7675 9.09652 12.7506 9.14236C12.7336 9.18821 12.7085 9.22999 12.6766 9.26535C12.6447 9.3007 12.6067 9.32892 12.5647 9.34839C12.5227 9.36787 12.4775 9.37822 12.4318 9.37886C12.3395 9.38015 12.2504 9.3418 12.1842 9.27223C12.118 9.20266 12.0802 9.10758 12.0789 9.00791C12.0789 9.00624 12.0789 9.00483 12.0789 9.00322C12.0789 9.0016 12.0789 9.00004 12.0789 8.99842C12.0796 8.89962 12.1163 8.80512 12.1811 8.73533C12.2458 8.66553 12.3334 8.62605 12.425 8.62541C12.4997 8.625 12.5711 8.59258 12.6236 8.53528C12.6762 8.47797 12.7054 8.40049 12.705 8.31986C12.7046 8.23924 12.6745 8.16207 12.6214 8.10535C12.5683 8.04863 12.4965 8.017 12.4218 8.01741C12.2296 8.01628 12.0422 8.08184 11.8873 8.20441C11.7323 8.32698 11.618 8.50008 11.5612 8.69817L11.4226 8.69893C11.3483 8.69934 11.2771 8.73163 11.2248 8.78868C11.1725 8.84574 11.1434 8.92289 11.1438 9.00317C11.1442 9.08345 11.1742 9.16027 11.2271 9.21675C11.28 9.27322 11.3515 9.30472 11.4258 9.30431L11.5642 9.30355C11.6315 9.52579 11.7701 9.71481 11.955 9.83655C12.14 9.9583 12.3591 10.0047 12.5729 9.96753C12.7866 9.93032 12.981 9.81189 13.121 9.63358C13.2609 9.45528 13.3373 9.22884 13.3362 8.99508C13.336 8.92077 13.3562 8.84808 13.3943 8.78619C13.4324 8.7243 13.4866 8.67599 13.5501 8.64736C13.6137 8.61873 13.6836 8.61106 13.7512 8.62533C13.8188 8.63959 13.8809 8.67515 13.9298 8.72751C13.9787 8.77988 14.0121 8.84669 14.0258 8.91952C14.0396 8.99235 14.033 9.06793 14.007 9.13671C13.9809 9.20549 13.9366 9.26439 13.8796 9.30597C13.8225 9.34755 13.7553 9.36994 13.6865 9.37032C13.6495 9.37 13.6129 9.37762 13.5786 9.39273C13.5444 9.40783 13.5133 9.43012 13.4872 9.4583C13.461 9.48649 13.4403 9.52 13.4262 9.55691C13.4121 9.59381 13.405 9.63336 13.4052 9.67328C13.4054 9.71319 13.413 9.75266 13.4274 9.78941C13.4419 9.82616 13.463 9.85944 13.4894 9.88734C13.5159 9.91523 13.5472 9.93718 13.5816 9.9519C13.616 9.96663 13.6527 9.97384 13.6897 9.97312C13.8823 9.97329 14.0699 9.90677 14.2249 9.78333C14.3799 9.6599 14.4941 9.48604 14.5507 9.28731L14.6604 9.28671C14.7348 9.2863 14.806 9.25402 14.8583 9.19696C14.9105 9.13991 14.9397 9.06276 14.9393 8.98248C14.9388 8.9022 14.9089 8.82537 14.856 8.7689C14.8031 8.71242 14.7316 8.68092 14.6573 8.68133L14.6572 8.68113Z" fill="black"/>
<path d="M13.0065 2.30334C12.7563 2.30472 12.5122 2.38613 12.305 2.53729C12.0978 2.68845 11.9368 2.90256 11.8424 3.15255C11.748 3.40254 11.7244 3.67718 11.7746 3.94174C11.8248 4.2063 11.9465 4.4489 12.1244 4.63885C12.3023 4.82881 12.5283 4.9576 12.7739 5.00892C13.0196 5.06025 13.2737 5.03181 13.5043 4.92721C13.7349 4.82261 13.9315 4.64654 14.0693 4.42126C14.2071 4.19598 14.2798 3.93162 14.2784 3.66161C14.2761 3.29966 14.1409 2.95339 13.9025 2.69876C13.664 2.44413 13.3418 2.30192 13.0065 2.30334ZM13.0176 4.42842C12.8784 4.42919 12.7421 4.38537 12.6259 4.30251C12.5097 4.21966 12.4188 4.10148 12.3648 3.96293C12.3108 3.82438 12.2961 3.67168 12.3225 3.52413C12.3488 3.37658 12.4152 3.24082 12.5131 3.13401C12.611 3.0272 12.736 2.95415 12.8724 2.92407C13.0088 2.894 13.1504 2.90827 13.2793 2.96508C13.4083 3.02188 13.5187 3.11867 13.5967 3.2432C13.6747 3.36773 13.7168 3.51441 13.7176 3.66469C13.7185 3.86617 13.6453 4.05975 13.514 4.20296C13.3828 4.34616 13.2043 4.4273 13.0176 4.42857L13.0176 4.42842Z" fill="black"/>
<path d="M4.68699 12.016L4.54749 12.0177C4.47312 12.0186 4.40218 12.0514 4.35028 12.1089C4.29838 12.1663 4.26976 12.2436 4.27072 12.3239C4.27169 12.4042 4.30215 12.4808 4.35542 12.5369C4.40868 12.593 4.48039 12.624 4.55476 12.6231L4.69425 12.6213C4.76862 12.6204 4.83956 12.5876 4.89146 12.5302C4.94337 12.4727 4.97199 12.3954 4.97102 12.3151C4.97006 12.2348 4.93959 12.1582 4.88633 12.1021C4.83306 12.046 4.76136 12.015 4.68699 12.016Z" fill="black"/>
<path d="M9.6476 11.9373L5.59707 11.9596C5.5227 11.96 5.45154 11.9923 5.39925 12.0494C5.34696 12.1064 5.31782 12.1836 5.31824 12.2639C5.31866 12.3441 5.34861 12.421 5.4015 12.4775C5.45438 12.5339 5.52588 12.5654 5.60025 12.565L9.65078 12.5427C9.72515 12.5423 9.79631 12.51 9.8486 12.453C9.90089 12.3959 9.93003 12.3188 9.92961 12.2385C9.92919 12.1582 9.89924 12.0814 9.84635 12.0249C9.79347 11.9684 9.72197 11.9369 9.6476 11.9373Z" fill="black"/>
</svg>
